<?xml version="1.0" standalone="no"?>
<!DOCTYPE svg PUBLIC "-//W3C//DTD SVG 20010904//EN"
 "http://www.w3.org/TR/2001/REC-SVG-20010904/DTD/svg10.dtd">
<svg version="1.0" xmlns="http://www.w3.org/2000/svg"
 width="512.000000pt" height="512.000000pt" viewBox="0 0 512.000000 512.000000"
 preserveAspectRatio="xMidYMid meet">

<g transform="translate(0.000000,512.000000) scale(0.100000,-0.100000)"
fill="#000000" stroke="none">
<path d="M3678 4013 c6 -2 18 -2 25 0 6 3 1 5 -13 5 -14 0 -19 -2 -12 -5z"/>
<path d="M3735 4007 c42 -129 54 -197 35 -197 -5 0 -10 7 -10 16 0 8 -4 13 -8
10 -5 -3 -22 26 -38 64 -16 39 -33 70 -38 70 -4 0 -49 -14 -99 -30 -114 -39
-210 -89 -312 -164 -44 -32 -81 -59 -82 -60 -1 -1 10 -36 23 -79 25 -77 40
-91 64 -62 17 21 27 19 33 -7 4 -13 0 -29 -8 -38 -8 -9 -15 -23 -15 -32 0 -12
37 -77 56 -97 2 -2 10 2 19 9 19 16 13 22 64 -76 25 -48 39 -88 35 -97 -6 -18
40 -107 56 -107 5 0 11 8 15 19 10 31 144 158 232 219 79 54 83 58 76 87 -4
17 -7 47 -7 68 0 20 -4 37 -10 37 -5 0 -6 -3 -3 -7 4 -4 -5 -12 -20 -19 -16
-6 -68 -41 -117 -78 -49 -37 -90 -65 -91 -64 -3 3 -55 149 -55 155 0 9 114 77
160 94 42 16 55 17 61 7 4 -7 11 -9 15 -6 3 4 -1 14 -10 23 -15 15 -19 36 -20
110 -1 27 -4 30 -33 29 -33 -2 -203 -79 -203 -92 0 -4 39 11 88 34 96 47 142
62 142 46 0 -5 -12 -13 -27 -17 -16 -3 -68 -26 -117 -51 -50 -24 -94 -44 -98
-44 -15 0 -8 37 10 53 25 22 160 86 199 93 20 4 39 1 47 -6 13 -10 46 -128 46
-164 0 -9 -24 -29 -52 -46 -29 -16 -50 -30 -46 -30 6 0 140 59 145 64 2 2 -4
36 -14 75 -13 55 -14 74 -5 80 9 5 7 25 -8 80 -24 86 -43 126 -64 134 -9 4
-13 1 -11 -6z"/>
<path d="M3628 4003 c7 -3 16 -2 19 1 4 3 -2 6 -13 5 -11 0 -14 -3 -6 -6z"/>
<path d="M3576 3991 c-4 -5 3 -7 14 -4 23 6 26 13 6 13 -8 0 -17 -4 -20 -9z"/>
<path d="M3265 3834 l-30 -26 33 22 c17 12 32 23 32 26 0 7 -4 5 -35 -22z"/>
<path d="M2895 3714 c-49 -42 -89 -79 -88 -84 1 -4 14 -75 28 -157 14 -83 30
-165 35 -183 5 -19 8 -35 6 -37 -12 -12 -204 225 -219 272 -2 5 -43 -8 -90
-29 l-87 -39 0 -49 c0 -30 12 -79 31 -131 34 -88 168 -370 191 -400 13 -18 16
-17 48 13 18 17 46 38 62 46 15 8 28 20 28 27 0 6 -13 48 -30 91 -16 44 -28
81 -26 83 2 2 43 -19 92 -46 l88 -49 38 32 c21 17 36 37 33 44 -8 21 -27 237
-23 261 2 18 21 4 125 -94 67 -63 125 -115 129 -115 4 0 26 18 50 40 24 22 55
46 69 52 14 6 25 15 25 21 0 5 -39 50 -86 100 -48 51 -114 130 -148 176 -97
132 -176 231 -184 231 -4 0 -47 -35 -97 -76z m-264 -321 c13 -16 12 -17 -3 -4
-17 13 -22 21 -14 21 2 0 10 -8 17 -17z m44 -43 c3 -5 2 -10 -4 -10 -5 0 -13
5 -16 10 -3 6 -2 10 4 10 5 0 13 -4 16 -10z m-61 -15 c3 -8 1 -15 -4 -15 -6 0
-10 7 -10 15 0 8 2 15 4 15 2 0 6 -7 10 -15z m114 -33 c2 -7 -2 -10 -12 -6 -9
3 -16 11 -16 16 0 13 23 5 28 -10z m-94 -27 c3 -8 1 -15 -4 -15 -6 0 -10 7
-10 15 0 8 2 15 4 15 2 0 6 -7 10 -15z m26 -77 c0 -5 -4 -8 -10 -8 -5 0 -10
10 -10 23 0 18 2 19 10 7 5 -8 10 -18 10 -22z m20 -49 c0 -5 -4 -9 -10 -9 -5
0 -10 7 -10 16 0 8 5 12 10 9 6 -3 10 -10 10 -16z"/>
<path d="M3664 3609 c-33 -16 -66 -37 -74 -46 -14 -14 105 42 140 66 32 22
-11 9 -66 -20z"/>
<path d="M3845 3571 c31 -98 43 -157 33 -168 -5 -7 -64 -57 -130 -110 -116
-95 -119 -98 -88 -101 25 -3 40 5 73 35 23 21 81 64 128 95 l86 57 -25 94
c-20 78 -29 97 -49 106 -32 15 -35 14 -28 -8z"/>
<path d="M3622 3547 c-38 -19 -42 -25 -37 -47 9 -36 21 -45 40 -30 11 9 13 16
5 24 -12 12 -14 46 -2 46 5 0 17 7 28 15 26 20 17 18 -34 -8z"/>
<path d="M3756 3544 c-5 -14 -4 -15 9 -4 17 14 19 20 6 20 -5 0 -12 -7 -15
-16z"/>
<path d="M3715 3529 c-5 -5 -28 -26 -50 -45 l-40 -36 58 37 c31 21 57 42 57
46 0 12 -12 11 -25 -2z"/>
<path d="M2144 3391 c-38 -26 -95 -72 -127 -101 l-58 -53 7 -101 c5 -84 14
-122 51 -226 39 -110 146 -350 155 -350 2 0 30 25 62 56 l58 56 -27 70 -26 71
23 26 c13 14 44 48 69 75 l47 49 33 -38 c78 -90 90 -101 96 -85 8 19 59 70 93
92 l25 16 -31 34 c-16 18 -43 50 -59 72 -25 34 -26 40 -12 48 15 8 14 14 -10
63 -27 55 -36 64 -48 45 -13 -21 -34 -8 -69 39 -19 27 -61 77 -93 111 -32 34
-59 66 -61 71 -7 18 -30 8 -98 -40z m130 -127 c3 -8 2 -12 -4 -9 -6 3 -10 10
-10 16 0 14 7 11 14 -7z m-50 -122 c31 -40 56 -76 56 -80 0 -4 -18 -27 -39
-52 -45 -52 -39 -61 -66 90 -8 47 -18 93 -21 104 -11 33 13 13 70 -62z m91 68
c3 -5 2 -10 -4 -10 -5 0 -13 5 -16 10 -3 6 -2 10 4 10 5 0 13 -4 16 -10z m39
-55 c3 -8 1 -15 -3 -15 -5 0 -11 7 -15 15 -3 8 -1 15 3 15 5 0 11 -7 15 -15z
m80 -114 c-2 -2 -10 1 -17 8 -8 6 -23 8 -33 4 -17 -6 -17 -5 -5 11 11 13 11
20 3 28 -7 7 -12 16 -12 22 0 5 15 -8 34 -30 19 -21 32 -41 30 -43z m6 64 c-7
-9 -15 -13 -17 -11 -7 7 7 26 19 26 6 0 6 -6 -2 -15z m-90 -84 c0 -5 -7 -11
-15 -15 -15 -5 -20 5 -8 17 9 10 23 9 23 -2z m126 -38 c-4 -4 -11 -1 -16 7
-16 25 -11 35 7 17 9 -9 13 -20 9 -24z m-376 -3 c0 -5 -2 -10 -4 -10 -3 0 -8
5 -11 10 -3 6 -1 10 4 10 6 0 11 -4 11 -10z m200 -5 c-7 -9 -15 -13 -17 -11
-7 7 7 26 19 26 6 0 6 -6 -2 -15z m220 -37 c0 -6 -7 -5 -15 2 -8 7 -15 17 -15
22 0 6 7 5 15 -2 8 -7 15 -17 15 -22z m-406 -14 c3 -8 2 -12 -4 -9 -6 3 -10
10 -10 16 0 14 7 11 14 -7z m136 1 c-7 -9 -15 -13 -17 -11 -7 7 7 26 19 26 6
0 6 -6 -2 -15z m-40 -45 c0 -5 -5 -10 -11 -10 -5 0 -7 5 -4 10 3 6 8 10 11 10
2 0 4 -4 4 -10z m-70 -20 c0 -5 -2 -10 -4 -10 -3 0 -8 5 -11 10 -3 6 -1 10 4
10 6 0 11 -4 11 -10z m22 -51 c-4 -26 -6 -29 -14 -15 -10 18 -4 46 10 46 5 0
6 -14 4 -31z m28 -80 c0 -6 -4 -7 -10 -4 -5 3 -10 11 -10 16 0 6 5 7 10 4 6
-3 10 -11 10 -16z m20 -54 c0 -8 -2 -15 -4 -15 -2 0 -6 7 -10 15 -3 8 -1 15 4
15 6 0 10 -7 10 -15z"/>
<path d="M3800 3378 c-36 -27 -76 -61 -90 -75 l-25 -26 35 24 c27 18 101 76
149 116 2 1 2 5 0 7 -2 2 -33 -19 -69 -46z"/>
<path d="M3070 3269 c1 -4 34 -137 44 -174 4 -15 -7 -30 -44 -62 -43 -36 -46
-42 -28 -46 15 -4 31 6 59 36 21 23 39 47 39 52 0 15 -56 184 -63 192 -4 3 -7
4 -7 2z"/>
<path d="M1738 3130 c20 -49 38 -88 40 -86 11 12 -52 176 -68 176 -4 0 8 -40
28 -90z"/>
<path d="M3344 3150 c-44 -41 -48 -49 -32 -54 13 -3 34 8 61 32 23 20 44 38
46 39 3 2 -2 10 -10 18 -12 12 -21 8 -65 -35z"/>
<path d="M3770 3146 c0 -2 8 -10 18 -17 15 -13 16 -12 3 4 -13 16 -21 21 -21
13z"/>
<path d="M3560 3116 c-99 -35 -182 -80 -249 -136 -33 -27 -62 -46 -64 -42 -3
4 -8 22 -12 40 -3 17 -11 32 -17 32 -39 0 -277 -179 -378 -284 -43 -45 -45
-46 -52 -24 -3 13 -6 41 -7 64 -1 22 -3 43 -7 46 -10 10 -214 -124 -214 -141
0 -31 59 -266 88 -356 17 -49 29 -91 27 -93 -7 -7 -125 155 -189 258 -38 61
-72 107 -76 103 -4 -4 -33 -42 -65 -83 -32 -41 -61 -78 -65 -83 -3 -4 -25 -1
-49 7 -113 40 -294 -61 -364 -204 -72 -148 -72 -297 0 -391 44 -58 99 -99 190
-142 125 -58 265 -36 345 56 41 46 49 41 18 -10 -59 -98 -226 -130 -360 -70
-71 32 -169 106 -199 152 -18 26 -27 33 -35 25 -8 -8 -6 -14 7 -21 9 -6 14
-15 11 -21 -4 -7 -2 -8 4 -4 7 4 12 2 12 -4 0 -14 61 -76 72 -73 4 2 15 -8 24
-22 9 -14 25 -25 35 -25 11 0 19 -4 19 -8 0 -10 50 -28 124 -42 153 -31 294
39 352 175 14 33 23 48 20 34 -16 -74 -63 -148 -120 -186 -56 -38 -102 -53
-171 -54 -82 -1 -15 -20 75 -21 145 -2 211 58 261 239 15 53 22 103 21 156 -1
42 2 77 6 77 3 0 52 -45 107 -99 78 -78 108 -101 136 -106 34 -6 38 -4 123 86
59 62 86 97 82 108 -3 9 -19 54 -35 101 -36 102 -36 106 -12 113 22 5 56 -46
53 -81 -1 -14 20 -52 55 -100 66 -90 70 -93 103 -90 19 2 49 38 140 167 63 91
120 166 125 168 6 2 19 -19 29 -46 20 -55 27 -63 72 -78 23 -8 36 -7 55 3 35
19 60 18 53 -3 -4 -10 3 -4 14 14 11 17 30 34 42 38 20 6 21 12 15 52 -8 55 2
64 54 52 20 -5 77 -11 126 -15 l91 -7 3 114 c2 109 1 115 -21 135 -13 12 -43
24 -67 28 -24 4 -61 12 -82 19 -33 10 -39 16 -39 39 0 15 4 29 9 32 16 10 69
111 80 154 21 76 16 135 -17 206 -31 66 -47 80 -59 50 -5 -13 -8 -13 -27 4
-54 49 -123 55 -226 18z m76 -211 c14 -22 15 -32 5 -63 -12 -38 -75 -132 -89
-132 -5 0 -16 35 -26 78 -10 42 -20 87 -23 99 -6 27 21 41 79 42 30 1 41 -4
54 -24z m-409 -102 c3 -10 14 -38 25 -62 l18 -44 29 27 28 27 57 -140 c57
-143 64 -167 46 -156 -6 4 -24 0 -40 -9 -30 -15 -31 -15 -37 15 -3 16 -9 31
-13 34 -4 2 -44 -34 -90 -81 -46 -46 -84 -83 -85 -82 -1 2 -16 39 -33 82 l-32
80 42 44 c24 24 62 55 86 69 24 14 42 28 40 32 -2 4 -12 30 -22 59 -11 29 -23
52 -26 52 -3 0 -39 -27 -80 -60 -41 -33 -78 -60 -81 -60 -15 0 -17 46 -4 67
16 24 142 123 157 123 5 0 11 -8 15 -17z m477 -167 c-6 -16 -24 -23 -24 -8 0
10 22 33 27 28 2 -2 1 -11 -3 -20z m265 -158 c0 -44 -3 -65 -8 -53 -7 19 -3
125 5 125 2 0 4 -33 3 -72z m-1107 15 c24 32 34 34 48 6 9 -16 8 -24 -4 -38
-15 -16 -14 -22 5 -67 20 -45 36 -124 22 -110 -4 3 -7 14 -8 24 -3 39 -17 63
-32 58 -10 -4 -13 -2 -10 8 4 10 1 13 -9 9 -19 -7 -18 -29 5 -61 18 -25 71
-228 71 -270 0 -16 -153 -202 -166 -202 -8 0 56 80 113 143 35 38 43 52 37 70
-4 12 -20 72 -35 132 -17 69 -28 99 -29 80 l-2 -30 -9 35 c-15 63 -49 232 -48
244 0 6 7 -5 16 -24 l15 -35 20 28z m831 -80 c-7 -2 -19 -2 -25 0 -7 3 -2 5
12 5 14 0 19 -2 13 -5z m75 -10 c-10 -2 -26 -2 -35 0 -10 3 -2 5 17 5 19 0 27
-2 18 -5z m-760 -108 c12 -25 20 -45 18 -45 -4 0 -56 78 -56 85 0 18 19 -2 38
-40z m260 -67 c-87 -124 -114 -155 -78 -93 40 68 144 205 156 205 2 0 -33 -51
-78 -112z m12 -58 c-94 -139 -128 -183 -99 -127 36 67 183 277 195 277 3 0
-41 -67 -96 -150z m319 126 c-2 -2 -15 -9 -29 -15 -24 -11 -24 -11 -6 3 16 13
49 24 35 12z m11 -46 c-30 -16 -59 -29 -65 -29 -5 0 15 13 45 29 30 16 60 29
65 29 6 0 -15 -13 -45 -29z m-1393 -31 c42 -16 72 -48 105 -113 55 -109 47
-219 -21 -287 -119 -119 -311 4 -311 200 0 87 28 144 88 182 49 31 91 36 139
18z m660 -11 c-3 -8 -6 -5 -6 6 -1 11 2 17 5 13 3 -3 4 -12 1 -19z m-396 -20
c11 -21 11 -22 -4 -9 -10 7 -17 17 -17 22 0 15 9 10 21 -13z m363 -213 c-26
-30 -49 -55 -51 -55 -8 0 18 38 50 73 54 57 54 44 1 -18z"/>
<path d="M3573 2883 c-15 -6 -17 -69 -3 -78 12 -8 43 40 38 61 -3 19 -16 25
-35 17z"/>
<path d="M3305 2653 c15 -37 8 -47 -67 -107 -70 -55 -77 -64 -73 -90 7 -39 11
-42 34 -22 12 11 17 25 13 38 -3 13 1 26 11 33 9 7 39 33 66 58 47 44 49 48
38 77 -6 16 -15 30 -20 30 -5 0 -6 -8 -2 -17z"/>
<path d="M2117 2148 c-79 -47 -100 -168 -41 -245 14 -19 28 -32 31 -29 3 2 -6
19 -19 36 -36 49 -33 126 8 177 16 21 44 45 62 53 17 8 32 18 32 23 0 14 -35
7 -73 -15z"/>
<path d="M1596 2998 c-105 -141 -184 -350 -193 -515 l-6 -93 42 -55 c67 -89
130 -106 226 -61 61 28 194 127 254 190 l45 46 31 -25 32 -24 51 52 52 52 -55
74 c-51 69 -145 222 -145 236 0 4 11 21 25 40 l26 33 -23 46 c-12 25 -25 46
-29 46 -30 0 -261 -308 -275 -367 -4 -13 4 -49 19 -85 l24 -61 42 71 c23 40
45 72 49 72 5 0 23 -16 42 -35 l34 -35 -31 -37 c-37 -47 -106 -101 -140 -109
-62 -16 -113 39 -113 123 0 95 50 236 119 337 17 24 31 49 31 54 0 11 -69 92
-79 92 -4 0 -29 -28 -55 -62z"/>
<path d="M1780 3006 c0 -9 5 -16 10 -16 6 0 10 4 10 9 0 6 -4 13 -10 16 -5 3
-10 -1 -10 -9z"/>
<path d="M2910 2984 c6 -14 15 -34 20 -45 9 -16 5 -23 -29 -46 -39 -27 -53
-53 -29 -53 7 0 29 16 50 36 l37 37 -25 48 c-26 52 -40 65 -24 23z"/>
<path d="M2598 2805 c-27 -24 -48 -46 -48 -49 0 -5 90 41 118 59 5 4 -10 35
-17 35 -3 -1 -27 -20 -53 -45z"/>
<path d="M4650 2561 c0 -21 -3 -52 -6 -68 -5 -25 -2 -31 15 -36 27 -7 28 -5
36 76 l7 67 -26 0 c-24 0 -26 -4 -26 -39z"/>
<path d="M1363 2475 c0 -44 2 -61 4 -37 2 23 2 59 0 80 -2 20 -4 1 -4 -43z"/>
<path d="M1380 2366 c0 -18 48 -88 72 -104 10 -7 16 -17 13 -22 -3 -4 3 -14
13 -21 15 -13 16 -12 3 4 -16 21 -3 22 23 2 25 -19 79 -19 138 -1 47 14 173
90 197 119 23 28 3 19 -65 -29 -35 -25 -88 -55 -116 -66 -105 -40 -167 -19
-234 77 -40 59 -44 63 -44 41z"/>
<path d="M4358 2373 c7 -3 16 -2 19 1 4 3 -2 6 -13 5 -11 0 -14 -3 -6 -6z"/>
<path d="M1822 2301 c-68 -55 -147 -95 -207 -107 l-40 -7 29 -8 c32 -9 98 -4
164 13 37 9 45 16 63 57 11 25 30 56 41 68 40 42 12 33 -50 -16z"/>
<path d="M1904 2328 l-19 -23 23 19 c21 18 27 26 19 26 -2 0 -12 -10 -23 -22z"/>
<path d="M1872 2288 c-14 -18 -43 -78 -38 -78 2 0 16 20 29 45 25 45 29 57 9
33z"/>
<path d="M4581 2173 c-47 -184 -145 -399 -257 -570 -35 -54 -64 -100 -64 -104
0 -4 8 -10 17 -13 20 -8 33 6 107 125 101 160 171 317 231 513 28 94 33 121
23 128 -27 16 -35 6 -57 -79z"/>
<path d="M1812 2177 c-34 -69 -43 -169 -21 -235 6 -18 8 -43 5 -55 -3 -12 -1
-29 4 -37 5 -8 10 -10 11 -5 4 32 3 45 -8 90 -18 69 -16 109 6 190 21 74 22
90 3 52z"/>
<path d="M3489 1923 c-13 -16 -12 -17 4 -4 16 13 21 21 13 21 -2 0 -10 -8 -17
-17z"/>
<path d="M1770 1910 c0 -5 5 -10 10 -10 6 0 10 5 10 10 0 6 -4 10 -10 10 -5 0
-10 -4 -10 -10z"/>
<path d="M3208 1729 c-43 -27 -78 -52 -78 -54 0 -6 120 66 126 76 3 5 12 9 20
9 8 0 13 -4 10 -9 -3 -5 1 -11 9 -15 8 -3 15 -9 15 -15 0 -9 -120 -91 -135
-91 -4 0 -14 8 -22 18 -12 15 -12 14 -2 -10 7 -15 17 -25 23 -21 35 19 156 99
156 103 -1 3 -11 17 -23 32 l-22 27 -77 -50z"/>
<path d="M4201 1166 c-9 -10 -8 -16 4 -26 21 -17 51 6 34 26 -6 8 -15 14 -19
14 -4 0 -13 -6 -19 -14z"/>
<path d="M4121 1086 c-9 -10 -8 -16 4 -26 21 -17 51 6 34 26 -6 8 -15 14 -19
14 -4 0 -13 -6 -19 -14z"/>
<path d="M4034 1008 l-19 -23 23 19 c21 18 27 26 19 26 -2 0 -12 -10 -23 -22z"/>
<path d="M3979 963 c-13 -16 -12 -17 4 -4 9 7 17 15 17 17 0 8 -8 3 -21 -13z"/>
<path d="M3651 933 c7 -12 15 -20 18 -17 3 2 -3 12 -13 22 -17 16 -18 16 -5
-5z"/>
</g>
</svg>
